<?xml version="1.0" standalone="yes"?>
<svg xmlns="http://www.w3.org/2000/svg" width="512" height="512">
<path style="fill:#ffffff; stroke:none;" d="M0 0L0 135L1 135C3.7749 116.21 20.3659 99.8242 39 96.4645C71.3177 90.6377 106.947 102.539 139 95.6096C149.833 93.2678 161.108 85.1929 171 80.2469L236 47.7531C247.379 42.0637 268.336 25.7041 280.985 34.6528C286.522 38.5704 288.708 45.3595 292 51C306.56 46.8055 324.309 28.7952 340 32.3943C347.73 34.1674 351.037 41.5805 354.247 48L370.753 81C372.772 85.0387 374.83 92.3145 378.637 94.9722C382.2 97.4597 389.843 96 394 96C406.583 96 426.296 92.2633 438 97.0092C446.859 100.602 447.999 108.641 448 117L448 160C456.637 160 468.051 157.81 474.895 164.214C482.113 170.967 480 182.046 480 191L480 256C491.915 256 504.562 253.626 511 266L512 266L512 0L0 0z"/>
<path style="fill:#1976d1; stroke:none;" d="M266.667 32.3333L267.333 32.6667L266.667 32.3333z"/>
<path style="fill:#010202; stroke:none;" d="M480 384C489.058 384 502.017 386.594 508.606 378.895C514.173 372.389 512 360.965 512 353L512 288C512 279.828 514.312 267.774 508.606 261.105C502.017 253.406 489.058 256 480 256L480 190C480 181.796 482.15 170.578 475.786 164.214C469.117 157.544 456.615 160 448 160L448 116C447.987 108.054 446.271 100.392 438 97.1482C426.238 92.5354 407.557 96 395 96C390.31 96 382.278 97.5275 378.39 94.3966C374.479 91.2462 372.445 84.397 370.247 80L354.247 48C349.813 39.1333 344.406 30.3853 333 32.3295C325.694 33.5748 318.557 38.4748 312 41.7531C305.311 45.0974 298.459 48.2303 292 52C286.878 39.6978 278.996 27.6388 264 33.8766C233.629 46.5096 204.427 63.5334 175 78.2469C163.903 83.7954 151.144 92.9844 139 95.6096C130.905 97.3595 121.266 96 113 96L60 96C42.4799 96 26.9832 96.5074 13.7577 109.758C-6.9464 130.501 0 167.383 0 194L0 365C0 390.176 -5.49881 422.914 2.35957 447C7.32882 462.231 20.3056 474.764 36 478.497C50.2945 481.897 66.3927 480 81 480L164 480L396 480L452 480C460.14 480 469.649 481.486 475.775 474.892C481.951 468.244 480 457.331 480 449L480 384z"/>
<path style="fill:#1976d1; stroke:none;" d="M276.667 32.3333L277.333 32.6667L276.667 32.3333M330.667 32.3333L331.333 32.6667L330.667 32.3333M340.667 32.3333L341.333 32.6667L340.667 32.3333M264 33L265 34L264 33M279 33L280 34L279 33M328 33L329 34L328 33M343 33L344 34L343 33M262 34L263 35L262 34M281 34L282 35L281 34M326 34L327 35L326 34M345 34L346 35L345 34M260 35L261 36L260 35M282 35L283 36L282 35M324 35L325 36L324 35M346 35L347 36L346 35M258 36L259 37L258 36M283 36L284 37L283 36M322 36L323 37L322 36M347 36L348 37L347 36M256 37L257 38L256 37M284 37L285 38L284 37M320 37L321 38L320 37M348 37L349 38L348 37M254 38L255 39L254 38M285 38L286 39L285 38M318 38L319 39L318 38M349 38L350 39L349 38M252 39L253 40L252 39M316 39L317 40L316 39M250 40L251 41L250 40M286 40L287 41L286 40M314 40L315 41L314 40M350 40L351 41L350 40M248 41L249 42L248 41M312 41L313 42L312 41M246 42L247 43L246 42M287 42L288 43L287 42M310 42L311 43L310 42M351 42L352 43L351 42M244 43L245 44L244 43M308 43L309 44L308 43M242 44L243 45L242 44M288 44L289 45L288 44M306 44L307 45L306 44M352 44L353 45L352 44M240 45L241 46L240 45M304 45L305 46L304 45M238 46L239 47L238 46M289 46L290 47L289 46M302 46L303 47L302 46M353 46L354 47L353 46M236 47L237 48L236 47M300 47L301 48L300 47M234 48L235 49L234 48M290 48L291 49L290 48M298 48L299 49L298 48M354 48L355 49L354 48M232 49L233 50L232 49M296 49L297 50L296 49M230 50L231 51L230 50M291 50L292 51L291 50M294 50L295 51L294 50M355 50L356 51L355 50M228 51L229 52L228 51M292 51L293 52L292 51M226 52L227 53L226 52M356 52L357 53L356 52M224 53L225 54L224 53M222 54L223 55L222 54M357 54L358 55L357 54M220 55L221 56L220 55M218 56L219 57L218 56M358 56L359 57L358 56M216 57L217 58L216 57M214 58L215 59L214 58M359 58L360 59L359 58M212 59L213 60L212 59M210 60L211 61L210 60M360 60L361 61L360 60M208 61L209 62L208 61M206 62L207 63L206 62M361 62L362 63L361 62M204 63L205 64L204 63M202 64L203 65L202 64M362 64L363 65L362 64M200 65L201 66L200 65M198 66L199 67L198 66M363 66L364 67L363 66M196 67L197 68L196 67M194 68L195 69L194 68M364 68L365 69L364 68M192 69L193 70L192 69M190 70L191 71L190 70z"/>
<path style="fill:#77c27b; stroke:none;" d="M85 159L85 160L310 160C297.414 129.77 281.507 98.2812 265 70L214 94.7531L85 159z"/>
<path style="fill:#1976d1; stroke:none;" d="M265 70L266 71L265 70M327 70L328 71L327 70z"/>
<path style="fill:#77c27b; stroke:none;" d="M307 81L334.753 138L346.39 158.972L374 160C361.418 129.779 345.502 98.2739 329 70L307 81z"/>
<path style="fill:#1976d1; stroke:none;" d="M365 70L366 71L365 70M188 71L189 72L188 71M325 71L326 72L325 71M186 72L187 73L186 72M266 72L267 73L266 72M323 72L324 73L323 72M366 72L367 73L366 72M184 73L185 74L184 73M321 73L322 74L321 73M182 74L183 75L182 74M267 74L268 75L267 74M319 74L320 75L319 74M367 74L368 75L367 74M180 75L181 76L180 75M317 75L318 76L317 75M178 76L179 77L178 76M268 76L269 77L268 76M315 76L316 77L315 76M368 76L369 77L368 76M176 77L177 78L176 77M313 77L314 78L313 77M174 78L175 79L174 78M311 78L312 79L311 78M369 78L370 79L369 78M172 79L173 80L172 79M309 79L310 80L309 79M170 80L171 81L170 80M307 80L308 81L307 80M370 80L371 81L370 80M168 81L169 82L168 81M166 82L167 83L166 82M371 82L372 83L371 82M164 83L165 84L164 83M162 84L163 85L162 84M272 84L273 85L272 84M372 84L373 85L372 84M160 85L161 86L160 85M158 86L159 87L158 86M273 86L274 87L273 86M373 86L374 87L373 86M156 87L157 88L156 87M154 88L155 89L154 88M274 88L275 89L274 88M374 88L375 89L374 88M152 89L153 90L152 89M150 90L151 91L150 90M275 90L276 91L275 90M375 90L376 91L375 90M148 91L149 92L148 91M146 92L147 93L146 92M276 92L277 93L276 92M376 92L377 93L376 92M144 93L145 94L144 93M142 94L143 95L142 94M277 94L278 95L277 94M377 94L378 95L377 94M140 95L141 96L140 95z"/>
<path style="fill:#2197f3; stroke:none;" d="M38 96L39 97L38 96z"/>
<path style="fill:#1976d1; stroke:none;" d="M39 96L40 97L39 96M278 96L279 97L278 96M436.667 96.3333L437.333 96.6667L436.667 96.3333M439 97L440 98L439 97M279 98L280 99L279 98M441 98L442 99L441 98M29 99L30 100L29 99M442 99L443 100L442 99M280 100L281 101L280 100M443 100L444 101L443 100M444 101L445 102L444 101M281 102L282 103L281 102M445 102L446 103L445 102M21 103L22 104L21 103M20 104L21 105L20 104M282 104L283 105L282 104M446 104L447 105L446 104M283 106L284 107L283 106M447.333 106.667L447.667 107.333L447.333 106.667M284 108L285 109L284 108M14 109L15 110L14 109M13 110L14 111L13 110M285 110L286 111L285 110M286 112L287 113L286 112M287 114L288 115L287 114M8 116L9 117L8 116M288 116L289 117L288 116z"/>
<path style="fill:#2197f3; stroke:none;" d="M7 117L8 118L7 117z"/>
<path style="fill:#1976d1; stroke:none;" d="M7 118L8 119L7 118M289 118L290 119L289 118M6 119L7 120L6 119M353 119L354 120L353 119M290 120L291 121L290 120M5 121L6 122L5 121M291 122L292 123L291 122M292 124L293 125L292 124M3.33333 125.667L3.66667 126.333L3.33333 125.667M151 126L152 127L151 126M293 126L294 127L293 126M2 128L3 129L2 128M44 128L45 129L44 128z"/>
<path style="fill:#77c27b; stroke:none;" d="M45.6667 128.333L46.3333 128.667L45.6667 128.333z"/>
<path style="fill:#ffffff; stroke:none;" d="M33 149L75 129C57.327 121.584 33.0023 128.328 33 149z"/>
<path style="fill:#1976d1; stroke:none;" d="M75 128L76 129L75 128M294 128L295 129L294 128z"/>
<path style="fill:#77c27b; stroke:none;" d="M394 128L395 129L394 128z"/>
<path style="fill:#ffffff; stroke:none;" d="M395 128C397.581 136.958 405.702 159.658 416 160L416 128L395 128z"/>
<path style="fill:#1976d1; stroke:none;" d="M41 129L42 130L41 129M73 129L74 130L73 129M394 129L395 130L394 129M39 130L40 131L39 130M71 130L72 131L71 130M295 130L296 131L295 130z"/>
<path style="fill:#77c27b; stroke:none;" d="M395 130L396 131L395 130M38 131L39 132L38 131z"/>
<path style="fill:#1976d1; stroke:none;" d="M69 131L70 132L69 131M395 131L396 132L395 131z"/>
<path style="fill:#77c27b; stroke:none;" d="M37 132L38 133L37 132z"/>
<path style="fill:#1976d1; stroke:none;" d="M67 132L68 133L67 132M296 132L297 133L296 132z"/>
<path style="fill:#77c27b; stroke:none;" d="M396 132L397 133L396 132M36 133L37 134L36 133z"/>
<path style="fill:#1976d1; stroke:none;" d="M65 133L66 134L65 133M396 133L397 134L396 133z"/>
<path style="fill:#77c27b; stroke:none;" d="M35 134L36 135L35 134z"/>
<path style="fill:#1976d1; stroke:none;" d="M63 134L64 135L63 134M297 134L298 135L297 134z"/>
<path style="fill:#77c27b; stroke:none;" d="M397 134L398 135L397 134z"/>
<path style="fill:#2197f3; stroke:none;" d="M0 135L1 136L0 135z"/>
<path style="fill:#1976d1; stroke:none;" d="M34 135L35 136L34 135M61 135L62 136L61 135M397 135L398 136L397 135M0.333333 136.667L0.666667 137.333L0.333333 136.667M59 136L60 137L59 136M298 136L299 137L298 136z"/>
<path style="fill:#77c27b; stroke:none;" d="M398 136L399 137L398 136z"/>
<path style="fill:#1976d1; stroke:none;" d="M33 137L34 138L33 137M57 137L58 138L57 137M398 137L399 138L398 137z"/>
<path style="fill:#77c27b; stroke:none;" d="M33 138L34 139L33 138z"/>
<path style="fill:#1976d1; stroke:none;" d="M55 138L56 139L55 138M299 138L300 139L299 138z"/>
<path style="fill:#77c27b; stroke:none;" d="M399 138L400 139L399 138z"/>
<path style="fill:#1976d1; stroke:none;" d="M53 139L54 140L53 139M399 139L400 140L399 139M32 140L33 141L32 140M51 140L52 141L51 140M300 140L301 141L300 140z"/>
<path style="fill:#77c27b; stroke:none;" d="M400 140L401 141L400 140M32 141L32 146L33 146L32 141z"/>
<path style="fill:#1976d1; stroke:none;" d="M49 141L50 142L49 141M400 141L401 142L400 141M47 142L48 143L47 142M301 142L302 143L301 142z"/>
<path style="fill:#77c27b; stroke:none;" d="M401 142L402 143L401 142z"/>
<path style="fill:#1976d1; stroke:none;" d="M45 143L46 144L45 143M401 143L402 144L401 143M43 144L44 145L43 144M302 144L303 145L302 144z"/>
<path style="fill:#77c27b; stroke:none;" d="M402 144L403 145L402 144z"/>
<path style="fill:#1976d1; stroke:none;" d="M41 145L42 146L41 145M402 145L403 146L402 145M32.3333 146.667L32.6667 147.333L32.3333 146.667M39 146L40 147L39 146M303 146L304 147L303 146z"/>
<path style="fill:#77c27b; stroke:none;" d="M403 146L404 147L403 146z"/>
<path style="fill:#1976d1; stroke:none;" d="M37 147L38 148L37 147M403 147L404 148L403 147M35 148L36 149L35 148M304 148L305 149L304 148z"/>
<path style="fill:#77c27b; stroke:none;" d="M404 148L405 149L404 148z"/>
<path style="fill:#1976d1; stroke:none;" d="M33 149L34 150L33 149M404 149L405 150L404 149M305 150L306 151L305 150z"/>
<path style="fill:#77c27b; stroke:none;" d="M405 150L406 151L405 150z"/>
<path style="fill:#1976d1; stroke:none;" d="M405 151L406 152L405 151M306 152L307 153L306 152z"/>
<path style="fill:#77c27b; stroke:none;" d="M406 152L407 153L406 152z"/>
<path style="fill:#1976d1; stroke:none;" d="M406 153L407 154L406 153M307 154L308 155L307 154z"/>
<path style="fill:#77c27b; stroke:none;" d="M407 154L408 155L407 154z"/>
<path style="fill:#1976d1; stroke:none;" d="M407 155L408 156L407 155M308 156L309 157L308 156z"/>
<path style="fill:#77c27b; stroke:none;" d="M408 156L409 157L408 156z"/>
<path style="fill:#1976d1; stroke:none;" d="M408 157L409 158L408 157M309 158L310 159L309 158z"/>
<path style="fill:#77c27b; stroke:none;" d="M409 158L410 159L409 158z"/>
<path style="fill:#1976d1; stroke:none;" d="M409 159L410 160L409 159M32 189L33 190L32 189z"/>
<path style="fill:#2197f3; stroke:none;" d="M32 190L32 375L32 420C32 427.251 31.3383 435.989 36.3943 441.895C43.4134 450.094 56.4039 448 66 448L141 448L448 448L448 384C418.04 384 377.468 391.359 351 374.771C307.844 347.723 310.947 282.676 358 261.312C383.675 249.655 420.368 256 448 256L448 192L179 192C130.621 192 79.9208 196.189 32 190z"/>
<path style="fill:#1976d1; stroke:none;" d="M35.6667 190.333L36.3333 190.667L35.6667 190.333M40 191L40 192L43 192L40 191M374 256L374 257L377 257L374 256M369.667 257.333L370.333 257.667L369.667 257.333M365.667 258.333L366.333 258.667L365.667 258.333M362.667 259.333L363.333 259.667L362.667 259.333M359.667 260.333L360.333 260.667L359.667 260.333M357 261L358 262L357 261M355 262L356 263L355 262M353 263L354 264L353 263M351 264L352 265L351 264M350 265L351 266L350 265M348 266L349 267L348 266M347 267L348 268L347 267M345 268L346 269L345 268M344 269L345 270L344 269M343 270L344 271L343 270M338 274L339 275L338 274M334 279L335 280L334 279M333 280L334 281L333 280M331 283L332 284L331 283M330 284L331 285L330 284M329 286L330 287L329 286M480 352L480 288L402 288C388.477 288 374.251 286.398 363.09 295.681C345.062 310.675 350.515 341.027 372 349.535C383.27 353.999 397.102 352 409 352L480 352M327 289L328 290L327 289M326 291L327 292L326 291M325 293L326 294L325 293M324.333 295.667L324.667 296.333L324.333 295.667M323.333 298.667L323.667 299.333L323.333 298.667M322.333 301.667L322.667 302.333L322.333 301.667M321.333 305.667L321.667 306.333L321.333 305.667M320 310L320 313L321 313L320 310M320 327L320 330L321 330L320 327M321.333 333.667L321.667 334.333L321.333 333.667M322.333 337.667L322.667 338.333L322.333 337.667M323.333 340.667L323.667 341.333L323.333 340.667M324.333 343.667L324.667 344.333L324.333 343.667M325 346L326 347L325 346M326 348L327 349L326 348M327 350L328 351L327 350M329 353L330 354L329 353M330 355L331 356L330 355M331 356L332 357L331 356M333 359L334 360L333 359M334 360L335 361L334 360M343 369L344 370L343 369M344 370L345 371L344 370M347 372L348 373L347 372M348 373L349 374L348 373M350 374L351 375L350 374z"/>
<path style="fill:#ffffff; stroke:none;" d="M511 374C504.562 386.374 491.915 384 480 384L480 449C480 457.418 482.035 468.217 475.786 474.895C469.536 481.574 460.3 480 452 480L394 480L158 480L78 480C64.9548 480 49.674 482.167 37 478.844C19.2542 474.192 3.74881 459.613 1 441L0 441L0 512L512 512L512 416C512 404.056 515.607 384.98 511 374z"/>
<path style="fill:#1976d1; stroke:none;" d="M353 376L354 377L353 376M355 377L356 378L355 377M357 378L358 379L357 378M360 379L361 380L360 379M362.667 380.333L363.333 380.667L362.667 380.333M365.667 381.333L366.333 381.667L365.667 381.333M369.667 382.333L370.333 382.667L369.667 382.333M374 383L374 384L377 384L374 383M32 432L32 436L33 436L32 432M33.3333 437.667L33.6667 438.333L33.3333 437.667M0 438L0 441L1 441L0 438M34 439L35 440L34 439M35 441L36 442L35 441M36 442L37 443L36 442M37 443L38 444L37 443M1 444L2 445L1 444M38 444L39 445L38 444M40 445L41 446L40 445M41.6667 446.333L42.3333 446.667L41.6667 446.333M2 447L3 448L2 447M44 447L44 448L47 448L44 447M3 450L4 451L3 450M4 452L5 453L4 452M5 454L6 455L5 454M6 456L7 457L6 456M7 458L8 459L7 458M8 459L9 460L8 459M9 460L10 461L9 460M11 463L12 464L11 463M12 464L13 465L12 464M13 465L14 466L13 465M14 466L15 467L14 466M15 467L16 468L15 467M16 468L17 469L16 468M479.333 468.667L479.667 469.333L479.333 468.667M19 470L20 471L19 470M20 471L21 472L20 471M478 471L479 472L478 471M21 472L22 473L21 472M23 473L24 474L23 473M477 473L478 474L477 473M25 474L26 475L25 474M476 474L477 475L476 474M27 475L28 476L27 475M475 475L476 476L475 475M29 476L30 477L29 476M474 476L475 477L474 476M32 477L33 478L32 477M473 477L474 478L473 477M35 478L36 479L35 478M471 478L472 479L471 478M39 479L39 480L42 480L39 479M468.667 479.333L469.333 479.667L468.667 479.333z"/>
</svg>
